<?xml version="1.0" encoding="utf-8"?>
<!-- Generator: Adobe Illustrator 17.0.0, SVG Export Plug-In . SVG Version: 6.00 Build 0)  -->
<!DOCTYPE svg PUBLIC "-//W3C//DTD SVG 1.1//EN" "http://www.w3.org/Graphics/SVG/1.1/DTD/svg11.dtd">
<svg version="1.1" id="Layer_1" xmlns="http://www.w3.org/2000/svg" xmlns:xlink="http://www.w3.org/1999/xlink" x="0px" y="0px"
	 width="28px" height="32px" viewBox="0 0 28 32" enable-background="new 0 0 28 32" xml:space="preserve">
<g>
	<path fill="none" d="M25.97,17.836c0.074,0,0.145-0.011,0.216-0.033c-0.08,0.025-0.165,0.029-0.25,0.026
		C25.948,17.829,25.959,17.836,25.97,17.836z"/>
	<path fill="none" d="M26.663,17.348c-0.049,0.111-0.114,0.195-0.183,0.265C26.549,17.543,26.614,17.46,26.663,17.348z"/>
	<path fill="none" d="M26.423,17.666c-0.064,0.052-0.131,0.095-0.204,0.123C26.292,17.761,26.359,17.718,26.423,17.666z"/>
	<path fill="#803E97" d="M16.689,13.055h1.298c0.257,0,0.508,0.07,0.736,0.19l5.653-12.13c0.268-0.583,0-1.031-0.672-1.031h-2.058
		c-0.492,0-0.984,0-1.208,0.493L9.38,24.617H9.336L4.683,14.048c-0.135-0.267-0.358-0.491-0.805-0.491h-2.64
		c-0.67,0-0.94,0.447-0.67,1.029L8.486,31.47c0.089,0.223,0.358,0.447,0.76,0.447H9.47c0.402,0,0.671-0.224,0.76-0.447l4.72-10.129
		v-6.545C14.95,13.851,15.746,13.055,16.689,13.055z"/>
	<path fill="#010101" d="M24.472,13.496c-3.265,0-4.92,2.15-5.233,2.597l-0.493-1.522c-0.056-0.223-0.217-0.401-0.404-0.511
		c-0.115-0.067-0.237-0.116-0.356-0.116h-1.298c-0.446,0-0.85,0.404-0.85,0.851v4.637v11.576c0,0.447,0.404,0.851,0.85,0.851h2.148
		c0.716,0,1.208-0.092,1.208-0.851V19.633c0.179-0.314,1.432-2.194,4.026-2.194c0.582,0,1.252,0.178,1.52,0.313
		c0.114,0.051,0.232,0.074,0.347,0.079c0.085,0.003,0.17-0.002,0.25-0.026c0.011-0.003,0.021-0.011,0.033-0.015
		c0.074-0.028,0.141-0.07,0.204-0.123c0.02-0.016,0.039-0.033,0.057-0.052c0.069-0.07,0.134-0.154,0.183-0.265l1.074-2.194
		C28.229,13.945,26.171,13.496,24.472,13.496z"/>
	<path fill="#FFFFFF" d="M26.48,17.613c-0.018,0.02-0.038,0.036-0.057,0.052C26.443,17.649,26.461,17.633,26.48,17.613z"/>
	<path fill="#FFFFFF" d="M26.219,17.789c-0.011,0.003-0.021,0.011-0.033,0.015C26.198,17.8,26.207,17.792,26.219,17.789z"/>
	<path fill="#FFFFFF" d="M25.936,17.829c-0.114-0.005-0.232-0.028-0.347-0.079C25.704,17.802,25.822,17.825,25.936,17.829z"/>
</g>
</svg>
