<?xml version="1.0" encoding="utf-8"?>
<!-- Generator: Adobe Illustrator 17.0.0, SVG Export Plug-In . SVG Version: 6.00 Build 0)  -->
<!DOCTYPE svg PUBLIC "-//W3C//DTD SVG 1.1//EN" "http://www.w3.org/Graphics/SVG/1.1/DTD/svg11.dtd">
<svg version="1.1" id="Layer_1" xmlns="http://www.w3.org/2000/svg" xmlns:xlink="http://www.w3.org/1999/xlink" x="0px" y="0px"
	 width="32px" height="32px" viewBox="0 0 32 32" enable-background="new 0 0 32 32" xml:space="preserve">
<g>
	<path d="M29.197,11.48L16.271,24.405l-2.428,2.428c-0.321,0.321-0.768,0.5-1.214,0.5s-0.893-0.179-1.214-0.5l-2.428-2.428
		l-6.463-6.463c-0.321-0.321-0.5-0.768-0.5-1.214s0.179-0.893,0.5-1.214l2.428-2.428c0.321-0.321,0.768-0.5,1.214-0.5
		s0.893,0.179,1.214,0.5l5.249,5.266L24.341,6.624c0.321-0.322,0.768-0.5,1.214-0.5s0.893,0.178,1.214,0.5l2.428,2.428
		c0.321,0.321,0.5,0.768,0.5,1.214S29.518,11.158,29.197,11.48z"/>
</g>
</svg>
